<mxfile host="app.diagrams.net" agent="Mozilla/5.0 (Windows NT 10.0; Win64; x64) AppleWebKit/537.36 (KHTML, like Gecko) Chrome/131.0.0.0 Safari/537.36 Edg/131.0.0.0" version="25.0.3">
  <diagram id="C5RBs43oDa-KdzZeNtuy" name="Page-1">
    <mxGraphModel dx="1282" dy="549" grid="1" gridSize="10" guides="1" tooltips="1" connect="1" arrows="1" fold="1" page="1" pageScale="1" pageWidth="827" pageHeight="1169" math="0" shadow="0">
      <root>
        <mxCell id="WIyWlLk6GJQsqaUBKTNV-0" />
        <mxCell id="WIyWlLk6GJQsqaUBKTNV-1" parent="WIyWlLk6GJQsqaUBKTNV-0" />
        <mxCell id="ofAZB1A1xBXTMgq2kkwl-39" style="edgeStyle=orthogonalEdgeStyle;rounded=0;orthogonalLoop=1;jettySize=auto;html=1;fontFamily=Helvetica;fontSize=12;fontColor=default;fontStyle=0;swimlaneLine=0;" parent="WIyWlLk6GJQsqaUBKTNV-1" source="ofAZB1A1xBXTMgq2kkwl-0" target="ofAZB1A1xBXTMgq2kkwl-6" edge="1">
          <mxGeometry relative="1" as="geometry" />
        </mxCell>
        <mxCell id="ofAZB1A1xBXTMgq2kkwl-220" style="edgeStyle=orthogonalEdgeStyle;rounded=0;orthogonalLoop=1;jettySize=auto;html=1;fontFamily=Helvetica;fontSize=12;fontColor=default;fontStyle=0;swimlaneLine=0;" parent="WIyWlLk6GJQsqaUBKTNV-1" source="ofAZB1A1xBXTMgq2kkwl-0" target="ofAZB1A1xBXTMgq2kkwl-106" edge="1">
          <mxGeometry relative="1" as="geometry">
            <Array as="points">
              <mxPoint x="1303" y="367" />
            </Array>
          </mxGeometry>
        </mxCell>
        <mxCell id="ofAZB1A1xBXTMgq2kkwl-241" style="edgeStyle=orthogonalEdgeStyle;rounded=0;orthogonalLoop=1;jettySize=auto;html=1;fontFamily=Helvetica;fontSize=12;fontColor=default;fontStyle=0;swimlaneLine=0;" parent="WIyWlLk6GJQsqaUBKTNV-1" source="ofAZB1A1xBXTMgq2kkwl-0" target="ofAZB1A1xBXTMgq2kkwl-239" edge="1">
          <mxGeometry relative="1" as="geometry">
            <Array as="points">
              <mxPoint x="1393" y="516" />
            </Array>
          </mxGeometry>
        </mxCell>
        <mxCell id="ofAZB1A1xBXTMgq2kkwl-0" value="Users" style="swimlane;fontStyle=0;childLayout=stackLayout;horizontal=1;startSize=30;horizontalStack=0;resizeParent=1;resizeParentMax=0;resizeLast=0;collapsible=1;marginBottom=0;whiteSpace=wrap;html=1;fillColor=#dae8fc;strokeColor=#6c8ebf;fontSize=16;swimlaneLine=0;" parent="WIyWlLk6GJQsqaUBKTNV-1" vertex="1">
          <mxGeometry x="1264" y="72" width="180" height="270" as="geometry" />
        </mxCell>
        <mxCell id="ofAZB1A1xBXTMgq2kkwl-1" value="user_ID (P key)" style="text;strokeColor=#666666;fillColor=#f5f5f5;align=left;verticalAlign=middle;spacingLeft=4;spacingRight=4;overflow=hidden;points=[[0,0.5],[1,0.5]];portConstraint=eastwest;rotatable=0;whiteSpace=wrap;html=1;fontStyle=1;horizontal=1;fontColor=#333333;swimlaneLine=0;" parent="ofAZB1A1xBXTMgq2kkwl-0" vertex="1">
          <mxGeometry y="30" width="180" height="30" as="geometry" />
        </mxCell>
        <mxCell id="ofAZB1A1xBXTMgq2kkwl-2" value="phone (unique)" style="text;strokeColor=#666666;fillColor=#f5f5f5;align=left;verticalAlign=middle;spacingLeft=4;spacingRight=4;overflow=hidden;points=[[0,0.5],[1,0.5]];portConstraint=eastwest;rotatable=0;whiteSpace=wrap;html=1;fontColor=#333333;swimlaneLine=0;" parent="ofAZB1A1xBXTMgq2kkwl-0" vertex="1">
          <mxGeometry y="60" width="180" height="30" as="geometry" />
        </mxCell>
        <mxCell id="ofAZB1A1xBXTMgq2kkwl-30" value="password" style="text;strokeColor=#666666;fillColor=#f5f5f5;align=left;verticalAlign=middle;spacingLeft=4;spacingRight=4;overflow=hidden;points=[[0,0.5],[1,0.5]];portConstraint=eastwest;rotatable=0;whiteSpace=wrap;html=1;fontColor=#333333;swimlaneLine=0;" parent="ofAZB1A1xBXTMgq2kkwl-0" vertex="1">
          <mxGeometry y="90" width="180" height="30" as="geometry" />
        </mxCell>
        <mxCell id="ofAZB1A1xBXTMgq2kkwl-10" value="name" style="text;strokeColor=#666666;fillColor=#f5f5f5;align=left;verticalAlign=middle;spacingLeft=4;spacingRight=4;overflow=hidden;points=[[0,0.5],[1,0.5]];portConstraint=eastwest;rotatable=0;whiteSpace=wrap;html=1;fontColor=#333333;swimlaneLine=0;" parent="ofAZB1A1xBXTMgq2kkwl-0" vertex="1">
          <mxGeometry y="120" width="180" height="30" as="geometry" />
        </mxCell>
        <mxCell id="ofAZB1A1xBXTMgq2kkwl-8" value="email" style="text;strokeColor=#666666;fillColor=#f5f5f5;align=left;verticalAlign=middle;spacingLeft=4;spacingRight=4;overflow=hidden;points=[[0,0.5],[1,0.5]];portConstraint=eastwest;rotatable=0;whiteSpace=wrap;html=1;fontColor=#333333;swimlaneLine=0;" parent="ofAZB1A1xBXTMgq2kkwl-0" vertex="1">
          <mxGeometry y="150" width="180" height="30" as="geometry" />
        </mxCell>
        <mxCell id="ofAZB1A1xBXTMgq2kkwl-231" value="avatar" style="text;strokeColor=#666666;fillColor=#f5f5f5;align=left;verticalAlign=middle;spacingLeft=4;spacingRight=4;overflow=hidden;points=[[0,0.5],[1,0.5]];portConstraint=eastwest;rotatable=0;whiteSpace=wrap;html=1;fontColor=#333333;swimlaneLine=0;" parent="ofAZB1A1xBXTMgq2kkwl-0" vertex="1">
          <mxGeometry y="180" width="180" height="30" as="geometry" />
        </mxCell>
        <mxCell id="ofAZB1A1xBXTMgq2kkwl-32" value="roll (buyer, seller, admin)" style="text;strokeColor=#666666;fillColor=#f5f5f5;align=left;verticalAlign=middle;spacingLeft=4;spacingRight=4;overflow=hidden;points=[[0,0.5],[1,0.5]];portConstraint=eastwest;rotatable=0;whiteSpace=wrap;html=1;fontColor=#333333;swimlaneLine=0;" parent="ofAZB1A1xBXTMgq2kkwl-0" vertex="1">
          <mxGeometry y="210" width="180" height="30" as="geometry" />
        </mxCell>
        <mxCell id="ofAZB1A1xBXTMgq2kkwl-29" value="address_ID (F key)" style="text;strokeColor=#666666;fillColor=#f5f5f5;align=left;verticalAlign=middle;spacingLeft=4;spacingRight=4;overflow=hidden;points=[[0,0.5],[1,0.5]];portConstraint=eastwest;rotatable=0;whiteSpace=wrap;html=1;fontColor=#333333;fontStyle=6;swimlaneLine=0;" parent="ofAZB1A1xBXTMgq2kkwl-0" vertex="1">
          <mxGeometry y="240" width="180" height="30" as="geometry" />
        </mxCell>
        <mxCell id="ofAZB1A1xBXTMgq2kkwl-64" style="edgeStyle=orthogonalEdgeStyle;rounded=0;orthogonalLoop=1;jettySize=auto;html=1;fontFamily=Helvetica;fontSize=12;fontColor=default;fontStyle=0;swimlaneLine=0;" parent="WIyWlLk6GJQsqaUBKTNV-1" source="ofAZB1A1xBXTMgq2kkwl-4" target="ofAZB1A1xBXTMgq2kkwl-207" edge="1">
          <mxGeometry relative="1" as="geometry">
            <Array as="points">
              <mxPoint x="1674" y="41" />
              <mxPoint x="2123" y="41" />
              <mxPoint x="2123" y="1076" />
            </Array>
          </mxGeometry>
        </mxCell>
        <mxCell id="ofAZB1A1xBXTMgq2kkwl-88" style="edgeStyle=orthogonalEdgeStyle;rounded=0;orthogonalLoop=1;jettySize=auto;html=1;fontFamily=Helvetica;fontSize=12;fontColor=default;fontStyle=0;swimlaneLine=0;" parent="WIyWlLk6GJQsqaUBKTNV-1" source="ofAZB1A1xBXTMgq2kkwl-4" target="ofAZB1A1xBXTMgq2kkwl-83" edge="1">
          <mxGeometry relative="1" as="geometry">
            <Array as="points">
              <mxPoint x="1733" y="756" />
            </Array>
          </mxGeometry>
        </mxCell>
        <mxCell id="ofAZB1A1xBXTMgq2kkwl-166" style="edgeStyle=orthogonalEdgeStyle;rounded=0;orthogonalLoop=1;jettySize=auto;html=1;fontFamily=Helvetica;fontSize=12;fontColor=default;fontStyle=0;swimlaneLine=0;" parent="WIyWlLk6GJQsqaUBKTNV-1" source="ofAZB1A1xBXTMgq2kkwl-4" target="ofAZB1A1xBXTMgq2kkwl-112" edge="1">
          <mxGeometry relative="1" as="geometry">
            <Array as="points">
              <mxPoint x="1804" y="222" />
              <mxPoint x="1804" y="447" />
            </Array>
          </mxGeometry>
        </mxCell>
        <mxCell id="ofAZB1A1xBXTMgq2kkwl-4" value="Sellers" style="swimlane;fontStyle=0;childLayout=stackLayout;horizontal=1;startSize=30;horizontalStack=0;resizeParent=1;resizeParentMax=0;resizeLast=0;collapsible=1;marginBottom=0;whiteSpace=wrap;html=1;fillColor=#dae8fc;strokeColor=#6c8ebf;fontSize=16;swimlaneLine=0;" parent="WIyWlLk6GJQsqaUBKTNV-1" vertex="1">
          <mxGeometry x="1627" y="102" width="140" height="240" as="geometry" />
        </mxCell>
        <mxCell id="ofAZB1A1xBXTMgq2kkwl-5" value="seller_ID (P key)" style="text;strokeColor=#666666;fillColor=#f5f5f5;align=left;verticalAlign=middle;spacingLeft=4;spacingRight=4;overflow=hidden;points=[[0,0.5],[1,0.5]];portConstraint=eastwest;rotatable=0;whiteSpace=wrap;html=1;fontStyle=1;horizontal=1;fontColor=#333333;swimlaneLine=0;" parent="ofAZB1A1xBXTMgq2kkwl-4" vertex="1">
          <mxGeometry y="30" width="140" height="30" as="geometry" />
        </mxCell>
        <mxCell id="ofAZB1A1xBXTMgq2kkwl-34" value="name" style="text;strokeColor=#666666;fillColor=#f5f5f5;align=left;verticalAlign=middle;spacingLeft=4;spacingRight=4;overflow=hidden;points=[[0,0.5],[1,0.5]];portConstraint=eastwest;rotatable=0;whiteSpace=wrap;html=1;fontColor=#333333;swimlaneLine=0;" parent="ofAZB1A1xBXTMgq2kkwl-4" vertex="1">
          <mxGeometry y="60" width="140" height="30" as="geometry" />
        </mxCell>
        <mxCell id="ofAZB1A1xBXTMgq2kkwl-36" value="description" style="text;strokeColor=#666666;fillColor=#f5f5f5;align=left;verticalAlign=middle;spacingLeft=4;spacingRight=4;overflow=hidden;points=[[0,0.5],[1,0.5]];portConstraint=eastwest;rotatable=0;whiteSpace=wrap;html=1;fontColor=#333333;swimlaneLine=0;" parent="ofAZB1A1xBXTMgq2kkwl-4" vertex="1">
          <mxGeometry y="90" width="140" height="30" as="geometry" />
        </mxCell>
        <mxCell id="ofAZB1A1xBXTMgq2kkwl-41" value="logo" style="text;strokeColor=#666666;fillColor=#f5f5f5;align=left;verticalAlign=middle;spacingLeft=4;spacingRight=4;overflow=hidden;points=[[0,0.5],[1,0.5]];portConstraint=eastwest;rotatable=0;whiteSpace=wrap;html=1;fontColor=#333333;swimlaneLine=0;" parent="ofAZB1A1xBXTMgq2kkwl-4" vertex="1">
          <mxGeometry y="120" width="140" height="30" as="geometry" />
        </mxCell>
        <mxCell id="ofAZB1A1xBXTMgq2kkwl-42" value="background" style="text;strokeColor=#666666;fillColor=#f5f5f5;align=left;verticalAlign=middle;spacingLeft=4;spacingRight=4;overflow=hidden;points=[[0,0.5],[1,0.5]];portConstraint=eastwest;rotatable=0;whiteSpace=wrap;html=1;fontColor=#333333;swimlaneLine=0;" parent="ofAZB1A1xBXTMgq2kkwl-4" vertex="1">
          <mxGeometry y="150" width="140" height="30" as="geometry" />
        </mxCell>
        <mxCell id="ofAZB1A1xBXTMgq2kkwl-37" value="address_ID (F key)" style="text;strokeColor=#666666;fillColor=#f5f5f5;align=left;verticalAlign=middle;spacingLeft=4;spacingRight=4;overflow=hidden;points=[[0,0.5],[1,0.5]];portConstraint=eastwest;rotatable=0;whiteSpace=wrap;html=1;fontColor=#333333;fontStyle=6;swimlaneLine=0;" parent="ofAZB1A1xBXTMgq2kkwl-4" vertex="1">
          <mxGeometry y="180" width="140" height="30" as="geometry" />
        </mxCell>
        <mxCell id="ofAZB1A1xBXTMgq2kkwl-6" value="user_ID (F key)" style="text;strokeColor=#666666;fillColor=#f5f5f5;align=left;verticalAlign=middle;spacingLeft=4;spacingRight=4;overflow=hidden;points=[[0,0.5],[1,0.5]];portConstraint=eastwest;rotatable=0;whiteSpace=wrap;html=1;fontColor=#333333;fontStyle=6;swimlaneLine=0;" parent="ofAZB1A1xBXTMgq2kkwl-4" vertex="1">
          <mxGeometry y="210" width="140" height="30" as="geometry" />
        </mxCell>
        <mxCell id="ofAZB1A1xBXTMgq2kkwl-38" style="edgeStyle=orthogonalEdgeStyle;rounded=0;orthogonalLoop=1;jettySize=auto;html=1;fontFamily=Helvetica;fontSize=12;fontColor=default;fontStyle=0;swimlaneLine=0;" parent="WIyWlLk6GJQsqaUBKTNV-1" source="ofAZB1A1xBXTMgq2kkwl-12" target="ofAZB1A1xBXTMgq2kkwl-37" edge="1">
          <mxGeometry relative="1" as="geometry">
            <Array as="points">
              <mxPoint x="1084" y="42" />
              <mxPoint x="1574" y="42" />
              <mxPoint x="1574" y="297" />
            </Array>
          </mxGeometry>
        </mxCell>
        <mxCell id="ofAZB1A1xBXTMgq2kkwl-40" style="edgeStyle=orthogonalEdgeStyle;rounded=0;orthogonalLoop=1;jettySize=auto;html=1;fontFamily=Helvetica;fontSize=12;fontColor=default;fontStyle=0;swimlaneLine=0;" parent="WIyWlLk6GJQsqaUBKTNV-1" source="ofAZB1A1xBXTMgq2kkwl-12" target="ofAZB1A1xBXTMgq2kkwl-29" edge="1">
          <mxGeometry relative="1" as="geometry" />
        </mxCell>
        <mxCell id="ofAZB1A1xBXTMgq2kkwl-12" value="Address" style="swimlane;fontStyle=0;childLayout=stackLayout;horizontal=1;startSize=30;horizontalStack=0;resizeParent=1;resizeParentMax=0;resizeLast=0;collapsible=1;marginBottom=0;whiteSpace=wrap;html=1;fillColor=#dae8fc;strokeColor=#6c8ebf;fontSize=16;swimlaneLine=0;" parent="WIyWlLk6GJQsqaUBKTNV-1" vertex="1">
          <mxGeometry x="1014" y="162" width="140" height="120" as="geometry" />
        </mxCell>
        <mxCell id="ofAZB1A1xBXTMgq2kkwl-13" value="address_ID (P key)" style="text;strokeColor=#666666;fillColor=#f5f5f5;align=left;verticalAlign=middle;spacingLeft=4;spacingRight=4;overflow=hidden;points=[[0,0.5],[1,0.5]];portConstraint=eastwest;rotatable=0;whiteSpace=wrap;html=1;fontStyle=1;horizontal=1;fontColor=#333333;swimlaneLine=0;" parent="ofAZB1A1xBXTMgq2kkwl-12" vertex="1">
          <mxGeometry y="30" width="140" height="30" as="geometry" />
        </mxCell>
        <mxCell id="ofAZB1A1xBXTMgq2kkwl-16" value="address-line" style="text;strokeColor=#666666;fillColor=#f5f5f5;align=left;verticalAlign=middle;spacingLeft=4;spacingRight=4;overflow=hidden;points=[[0,0.5],[1,0.5]];portConstraint=eastwest;rotatable=0;whiteSpace=wrap;html=1;fontColor=#333333;swimlaneLine=0;" parent="ofAZB1A1xBXTMgq2kkwl-12" vertex="1">
          <mxGeometry y="60" width="140" height="30" as="geometry" />
        </mxCell>
        <mxCell id="ofAZB1A1xBXTMgq2kkwl-15" value="province_ID (F key)" style="text;strokeColor=#666666;fillColor=#f5f5f5;align=left;verticalAlign=middle;spacingLeft=4;spacingRight=4;overflow=hidden;points=[[0,0.5],[1,0.5]];portConstraint=eastwest;rotatable=0;whiteSpace=wrap;html=1;fontColor=#333333;fontStyle=6;swimlaneLine=0;" parent="ofAZB1A1xBXTMgq2kkwl-12" vertex="1">
          <mxGeometry y="90" width="140" height="30" as="geometry" />
        </mxCell>
        <mxCell id="ofAZB1A1xBXTMgq2kkwl-235" style="edgeStyle=orthogonalEdgeStyle;rounded=0;orthogonalLoop=1;jettySize=auto;html=1;fontFamily=Helvetica;fontSize=12;fontColor=default;fontStyle=0;swimlaneLine=0;" parent="WIyWlLk6GJQsqaUBKTNV-1" source="ofAZB1A1xBXTMgq2kkwl-17" target="ofAZB1A1xBXTMgq2kkwl-15" edge="1">
          <mxGeometry relative="1" as="geometry" />
        </mxCell>
        <mxCell id="ofAZB1A1xBXTMgq2kkwl-17" value="Provinces" style="swimlane;fontStyle=0;childLayout=stackLayout;horizontal=1;startSize=30;horizontalStack=0;resizeParent=1;resizeParentMax=0;resizeLast=0;collapsible=1;marginBottom=0;whiteSpace=wrap;html=1;fillColor=#dae8fc;strokeColor=#6c8ebf;fontSize=16;swimlaneLine=0;" parent="WIyWlLk6GJQsqaUBKTNV-1" vertex="1">
          <mxGeometry x="793" y="122" width="140" height="90" as="geometry" />
        </mxCell>
        <mxCell id="ofAZB1A1xBXTMgq2kkwl-18" value="province_ID (P key)" style="text;strokeColor=#666666;fillColor=#f5f5f5;align=left;verticalAlign=middle;spacingLeft=4;spacingRight=4;overflow=hidden;points=[[0,0.5],[1,0.5]];portConstraint=eastwest;rotatable=0;whiteSpace=wrap;html=1;fontStyle=1;horizontal=1;fontColor=#333333;swimlaneLine=0;" parent="ofAZB1A1xBXTMgq2kkwl-17" vertex="1">
          <mxGeometry y="30" width="140" height="30" as="geometry" />
        </mxCell>
        <mxCell id="ofAZB1A1xBXTMgq2kkwl-19" value="name&amp;nbsp;" style="text;strokeColor=#666666;fillColor=#f5f5f5;align=left;verticalAlign=middle;spacingLeft=4;spacingRight=4;overflow=hidden;points=[[0,0.5],[1,0.5]];portConstraint=eastwest;rotatable=0;whiteSpace=wrap;html=1;fontColor=#333333;swimlaneLine=0;" parent="ofAZB1A1xBXTMgq2kkwl-17" vertex="1">
          <mxGeometry y="60" width="140" height="30" as="geometry" />
        </mxCell>
        <mxCell id="ofAZB1A1xBXTMgq2kkwl-222" style="edgeStyle=orthogonalEdgeStyle;rounded=0;orthogonalLoop=1;jettySize=auto;html=1;fontFamily=Helvetica;fontSize=12;fontColor=default;fontStyle=0;swimlaneLine=0;" parent="WIyWlLk6GJQsqaUBKTNV-1" source="ofAZB1A1xBXTMgq2kkwl-43" target="ofAZB1A1xBXTMgq2kkwl-208" edge="1">
          <mxGeometry relative="1" as="geometry" />
        </mxCell>
        <mxCell id="ofAZB1A1xBXTMgq2kkwl-43" value="Categories" style="swimlane;fontStyle=0;childLayout=stackLayout;horizontal=1;startSize=30;horizontalStack=0;resizeParent=1;resizeParentMax=0;resizeLast=0;collapsible=1;marginBottom=0;whiteSpace=wrap;html=1;fillColor=#dae8fc;strokeColor=#6c8ebf;fontSize=16;swimlaneLine=0;" parent="WIyWlLk6GJQsqaUBKTNV-1" vertex="1">
          <mxGeometry x="1313" y="921" width="140" height="90" as="geometry" />
        </mxCell>
        <mxCell id="ofAZB1A1xBXTMgq2kkwl-44" value="category_ID (P key)" style="text;strokeColor=#666666;fillColor=#f5f5f5;align=left;verticalAlign=middle;spacingLeft=4;spacingRight=4;overflow=hidden;points=[[0,0.5],[1,0.5]];portConstraint=eastwest;rotatable=0;whiteSpace=wrap;html=1;fontStyle=1;horizontal=1;fontColor=#333333;swimlaneLine=0;" parent="ofAZB1A1xBXTMgq2kkwl-43" vertex="1">
          <mxGeometry y="30" width="140" height="30" as="geometry" />
        </mxCell>
        <mxCell id="ofAZB1A1xBXTMgq2kkwl-45" value="name" style="text;strokeColor=#666666;fillColor=#f5f5f5;align=left;verticalAlign=middle;spacingLeft=4;spacingRight=4;overflow=hidden;points=[[0,0.5],[1,0.5]];portConstraint=eastwest;rotatable=0;whiteSpace=wrap;html=1;fontColor=#333333;swimlaneLine=0;" parent="ofAZB1A1xBXTMgq2kkwl-43" vertex="1">
          <mxGeometry y="60" width="140" height="30" as="geometry" />
        </mxCell>
        <mxCell id="ofAZB1A1xBXTMgq2kkwl-100" style="edgeStyle=orthogonalEdgeStyle;rounded=0;orthogonalLoop=1;jettySize=auto;html=1;fontFamily=Helvetica;fontSize=12;fontColor=default;fontStyle=0;swimlaneLine=0;" parent="WIyWlLk6GJQsqaUBKTNV-1" source="ofAZB1A1xBXTMgq2kkwl-47" target="ofAZB1A1xBXTMgq2kkwl-99" edge="1">
          <mxGeometry relative="1" as="geometry">
            <Array as="points">
              <mxPoint x="1203" y="591" />
              <mxPoint x="1203" y="871" />
              <mxPoint x="1563" y="871" />
              <mxPoint x="1563" y="1041" />
            </Array>
          </mxGeometry>
        </mxCell>
        <mxCell id="ofAZB1A1xBXTMgq2kkwl-218" style="edgeStyle=orthogonalEdgeStyle;rounded=0;orthogonalLoop=1;jettySize=auto;html=1;fontFamily=Helvetica;fontSize=12;fontColor=default;fontStyle=0;swimlaneLine=0;" parent="WIyWlLk6GJQsqaUBKTNV-1" source="ofAZB1A1xBXTMgq2kkwl-47" target="ofAZB1A1xBXTMgq2kkwl-107" edge="1">
          <mxGeometry relative="1" as="geometry" />
        </mxCell>
        <mxCell id="ofAZB1A1xBXTMgq2kkwl-233" style="edgeStyle=orthogonalEdgeStyle;rounded=0;orthogonalLoop=1;jettySize=auto;html=1;fontFamily=Helvetica;fontSize=12;fontColor=default;fontStyle=0;swimlaneLine=0;" parent="WIyWlLk6GJQsqaUBKTNV-1" source="ofAZB1A1xBXTMgq2kkwl-47" target="ofAZB1A1xBXTMgq2kkwl-230" edge="1">
          <mxGeometry relative="1" as="geometry">
            <mxPoint x="939" y="591" as="sourcePoint" />
            <Array as="points">
              <mxPoint x="838" y="591" />
              <mxPoint x="838" y="636" />
            </Array>
          </mxGeometry>
        </mxCell>
        <mxCell id="ofAZB1A1xBXTMgq2kkwl-242" style="edgeStyle=orthogonalEdgeStyle;rounded=0;orthogonalLoop=1;jettySize=auto;html=1;fontFamily=Helvetica;fontSize=12;fontColor=default;fontStyle=0;swimlaneLine=0;" parent="WIyWlLk6GJQsqaUBKTNV-1" source="ofAZB1A1xBXTMgq2kkwl-47" target="ofAZB1A1xBXTMgq2kkwl-240" edge="1">
          <mxGeometry relative="1" as="geometry">
            <Array as="points">
              <mxPoint x="1153" y="546" />
              <mxPoint x="1153" y="546" />
            </Array>
          </mxGeometry>
        </mxCell>
        <mxCell id="ofAZB1A1xBXTMgq2kkwl-47" value="Products" style="swimlane;fontStyle=0;childLayout=stackLayout;horizontal=1;startSize=30;horizontalStack=0;resizeParent=1;resizeParentMax=0;resizeLast=0;collapsible=1;marginBottom=0;whiteSpace=wrap;html=1;fillColor=#dae8fc;strokeColor=#6c8ebf;fontSize=16;swimlaneLine=0;" parent="WIyWlLk6GJQsqaUBKTNV-1" vertex="1">
          <mxGeometry x="933" y="491" width="200" height="210" as="geometry" />
        </mxCell>
        <mxCell id="ofAZB1A1xBXTMgq2kkwl-48" value="product_ID (P key)" style="text;strokeColor=#666666;fillColor=#f5f5f5;align=left;verticalAlign=middle;spacingLeft=4;spacingRight=4;overflow=hidden;points=[[0,0.5],[1,0.5]];portConstraint=eastwest;rotatable=0;whiteSpace=wrap;html=1;fontStyle=1;horizontal=1;fontColor=#333333;swimlaneLine=0;" parent="ofAZB1A1xBXTMgq2kkwl-47" vertex="1">
          <mxGeometry y="30" width="200" height="30" as="geometry" />
        </mxCell>
        <mxCell id="ofAZB1A1xBXTMgq2kkwl-51" value="price" style="text;strokeColor=#666666;fillColor=#f5f5f5;align=left;verticalAlign=middle;spacingLeft=4;spacingRight=4;overflow=hidden;points=[[0,0.5],[1,0.5]];portConstraint=eastwest;rotatable=0;whiteSpace=wrap;html=1;fontColor=#333333;swimlaneLine=0;" parent="ofAZB1A1xBXTMgq2kkwl-47" vertex="1">
          <mxGeometry y="60" width="200" height="30" as="geometry" />
        </mxCell>
        <mxCell id="ofAZB1A1xBXTMgq2kkwl-186" value="quantity" style="text;strokeColor=#666666;fillColor=#f5f5f5;align=left;verticalAlign=middle;spacingLeft=4;spacingRight=4;overflow=hidden;points=[[0,0.5],[1,0.5]];portConstraint=eastwest;rotatable=0;whiteSpace=wrap;html=1;fontColor=#333333;swimlaneLine=0;" parent="ofAZB1A1xBXTMgq2kkwl-47" vertex="1">
          <mxGeometry y="90" width="200" height="30" as="geometry" />
        </mxCell>
        <mxCell id="ofAZB1A1xBXTMgq2kkwl-187" value="sold_quantity" style="text;strokeColor=#666666;fillColor=#f5f5f5;align=left;verticalAlign=middle;spacingLeft=4;spacingRight=4;overflow=hidden;points=[[0,0.5],[1,0.5]];portConstraint=eastwest;rotatable=0;whiteSpace=wrap;html=1;fontColor=#333333;swimlaneLine=0;" parent="ofAZB1A1xBXTMgq2kkwl-47" vertex="1">
          <mxGeometry y="120" width="200" height="30" as="geometry" />
        </mxCell>
        <mxCell id="ofAZB1A1xBXTMgq2kkwl-214" value="&lt;span style=&quot;&quot;&gt;product_attribute_value_ID&amp;nbsp;&lt;/span&gt;(F key)" style="text;strokeColor=#666666;fillColor=#f5f5f5;align=left;verticalAlign=middle;spacingLeft=4;spacingRight=4;overflow=hidden;points=[[0,0.5],[1,0.5]];portConstraint=eastwest;rotatable=0;whiteSpace=wrap;html=1;fontColor=#333333;fontStyle=6;swimlaneLine=0;" parent="ofAZB1A1xBXTMgq2kkwl-47" vertex="1">
          <mxGeometry y="150" width="200" height="30" as="geometry" />
        </mxCell>
        <mxCell id="ofAZB1A1xBXTMgq2kkwl-210" value="&lt;span style=&quot;&quot;&gt;product_info_ID&amp;nbsp;&lt;/span&gt;(F key)" style="text;strokeColor=#666666;fillColor=#f5f5f5;align=left;verticalAlign=middle;spacingLeft=4;spacingRight=4;overflow=hidden;points=[[0,0.5],[1,0.5]];portConstraint=eastwest;rotatable=0;whiteSpace=wrap;html=1;fontColor=#333333;fontStyle=6;swimlaneLine=0;" parent="ofAZB1A1xBXTMgq2kkwl-47" vertex="1">
          <mxGeometry y="180" width="200" height="30" as="geometry" />
        </mxCell>
        <mxCell id="ofAZB1A1xBXTMgq2kkwl-54" value="Product_Images" style="swimlane;fontStyle=0;childLayout=stackLayout;horizontal=1;startSize=30;horizontalStack=0;resizeParent=1;resizeParentMax=0;resizeLast=0;collapsible=1;marginBottom=0;whiteSpace=wrap;html=1;fillColor=#dae8fc;strokeColor=#6c8ebf;fontSize=16;swimlaneLine=0;" parent="WIyWlLk6GJQsqaUBKTNV-1" vertex="1">
          <mxGeometry x="646" y="971" width="180" height="120" as="geometry" />
        </mxCell>
        <mxCell id="ofAZB1A1xBXTMgq2kkwl-55" value="product_image_ID (P key)" style="text;strokeColor=#666666;fillColor=#f5f5f5;align=left;verticalAlign=middle;spacingLeft=4;spacingRight=4;overflow=hidden;points=[[0,0.5],[1,0.5]];portConstraint=eastwest;rotatable=0;whiteSpace=wrap;html=1;fontStyle=1;horizontal=1;fontColor=#333333;swimlaneLine=0;" parent="ofAZB1A1xBXTMgq2kkwl-54" vertex="1">
          <mxGeometry y="30" width="180" height="30" as="geometry" />
        </mxCell>
        <mxCell id="ofAZB1A1xBXTMgq2kkwl-56" value="image_path" style="text;strokeColor=#666666;fillColor=#f5f5f5;align=left;verticalAlign=middle;spacingLeft=4;spacingRight=4;overflow=hidden;points=[[0,0.5],[1,0.5]];portConstraint=eastwest;rotatable=0;whiteSpace=wrap;html=1;fontColor=#333333;swimlaneLine=0;" parent="ofAZB1A1xBXTMgq2kkwl-54" vertex="1">
          <mxGeometry y="60" width="180" height="30" as="geometry" />
        </mxCell>
        <mxCell id="ofAZB1A1xBXTMgq2kkwl-60" value="product_info_ID (F key)" style="text;strokeColor=#666666;fillColor=#f5f5f5;align=left;verticalAlign=middle;spacingLeft=4;spacingRight=4;overflow=hidden;points=[[0,0.5],[1,0.5]];portConstraint=eastwest;rotatable=0;whiteSpace=wrap;html=1;fontColor=#333333;fontStyle=6;swimlaneLine=0;" parent="ofAZB1A1xBXTMgq2kkwl-54" vertex="1">
          <mxGeometry y="90" width="180" height="30" as="geometry" />
        </mxCell>
        <mxCell id="ofAZB1A1xBXTMgq2kkwl-67" value="Product_Details" style="swimlane;fontStyle=0;childLayout=stackLayout;horizontal=1;startSize=30;horizontalStack=0;resizeParent=1;resizeParentMax=0;resizeLast=0;collapsible=1;marginBottom=0;whiteSpace=wrap;html=1;fillColor=#dae8fc;strokeColor=#6c8ebf;fontSize=16;swimlaneLine=0;" parent="WIyWlLk6GJQsqaUBKTNV-1" vertex="1">
          <mxGeometry x="358" y="911" width="180" height="150" as="geometry" />
        </mxCell>
        <mxCell id="ofAZB1A1xBXTMgq2kkwl-68" value="product_detail_ID (P key)" style="text;strokeColor=#666666;fillColor=#f5f5f5;align=left;verticalAlign=middle;spacingLeft=4;spacingRight=4;overflow=hidden;points=[[0,0.5],[1,0.5]];portConstraint=eastwest;rotatable=0;whiteSpace=wrap;html=1;fontStyle=1;horizontal=1;fontColor=#333333;swimlaneLine=0;" parent="ofAZB1A1xBXTMgq2kkwl-67" vertex="1">
          <mxGeometry y="30" width="180" height="30" as="geometry" />
        </mxCell>
        <mxCell id="ofAZB1A1xBXTMgq2kkwl-69" value="name" style="text;strokeColor=#666666;fillColor=#f5f5f5;align=left;verticalAlign=middle;spacingLeft=4;spacingRight=4;overflow=hidden;points=[[0,0.5],[1,0.5]];portConstraint=eastwest;rotatable=0;whiteSpace=wrap;html=1;fontColor=#333333;swimlaneLine=0;" parent="ofAZB1A1xBXTMgq2kkwl-67" vertex="1">
          <mxGeometry y="60" width="180" height="30" as="geometry" />
        </mxCell>
        <mxCell id="ofAZB1A1xBXTMgq2kkwl-70" value="description" style="text;strokeColor=#666666;fillColor=#f5f5f5;align=left;verticalAlign=middle;spacingLeft=4;spacingRight=4;overflow=hidden;points=[[0,0.5],[1,0.5]];portConstraint=eastwest;rotatable=0;whiteSpace=wrap;html=1;fontColor=#333333;swimlaneLine=0;" parent="ofAZB1A1xBXTMgq2kkwl-67" vertex="1">
          <mxGeometry y="90" width="180" height="30" as="geometry" />
        </mxCell>
        <mxCell id="ofAZB1A1xBXTMgq2kkwl-74" value="product_info_ID (F key)" style="text;strokeColor=#666666;fillColor=#f5f5f5;align=left;verticalAlign=middle;spacingLeft=4;spacingRight=4;overflow=hidden;points=[[0,0.5],[1,0.5]];portConstraint=eastwest;rotatable=0;whiteSpace=wrap;html=1;fontColor=#333333;fontStyle=6;swimlaneLine=0;" parent="ofAZB1A1xBXTMgq2kkwl-67" vertex="1">
          <mxGeometry y="120" width="180" height="30" as="geometry" />
        </mxCell>
        <mxCell id="ofAZB1A1xBXTMgq2kkwl-101" style="edgeStyle=orthogonalEdgeStyle;rounded=0;orthogonalLoop=1;jettySize=auto;html=1;fontFamily=Helvetica;fontSize=12;fontColor=default;fontStyle=0;swimlaneLine=0;" parent="WIyWlLk6GJQsqaUBKTNV-1" source="ofAZB1A1xBXTMgq2kkwl-76" target="ofAZB1A1xBXTMgq2kkwl-98" edge="1">
          <mxGeometry relative="1" as="geometry">
            <Array as="points">
              <mxPoint x="1603" y="1011" />
            </Array>
          </mxGeometry>
        </mxCell>
        <mxCell id="ofAZB1A1xBXTMgq2kkwl-261" style="edgeStyle=orthogonalEdgeStyle;rounded=0;orthogonalLoop=1;jettySize=auto;html=1;fontFamily=Helvetica;fontSize=12;fontColor=default;fontStyle=0;swimlaneLine=0;" parent="WIyWlLk6GJQsqaUBKTNV-1" source="ofAZB1A1xBXTMgq2kkwl-76" target="ofAZB1A1xBXTMgq2kkwl-260" edge="1">
          <mxGeometry relative="1" as="geometry">
            <Array as="points">
              <mxPoint x="1430" y="810" />
              <mxPoint x="1430" y="810" />
            </Array>
          </mxGeometry>
        </mxCell>
        <mxCell id="ofAZB1A1xBXTMgq2kkwl-76" value="Orders" style="swimlane;fontStyle=0;childLayout=stackLayout;horizontal=1;startSize=30;horizontalStack=0;resizeParent=1;resizeParentMax=0;resizeLast=0;collapsible=1;marginBottom=0;whiteSpace=wrap;html=1;fillColor=#dae8fc;strokeColor=#6c8ebf;fontSize=16;swimlaneLine=0;" parent="WIyWlLk6GJQsqaUBKTNV-1" vertex="1">
          <mxGeometry x="1493" y="531" width="200" height="300" as="geometry" />
        </mxCell>
        <mxCell id="ofAZB1A1xBXTMgq2kkwl-77" value="order_ID (P key)" style="text;strokeColor=#666666;fillColor=#f5f5f5;align=left;verticalAlign=middle;spacingLeft=4;spacingRight=4;overflow=hidden;points=[[0,0.5],[1,0.5]];portConstraint=eastwest;rotatable=0;whiteSpace=wrap;html=1;fontStyle=1;horizontal=1;fontColor=#333333;swimlaneLine=0;" parent="ofAZB1A1xBXTMgq2kkwl-76" vertex="1">
          <mxGeometry y="30" width="200" height="30" as="geometry" />
        </mxCell>
        <mxCell id="ofAZB1A1xBXTMgq2kkwl-80" value="total_price" style="text;strokeColor=#666666;fillColor=#f5f5f5;align=left;verticalAlign=middle;spacingLeft=4;spacingRight=4;overflow=hidden;points=[[0,0.5],[1,0.5]];portConstraint=eastwest;rotatable=0;whiteSpace=wrap;html=1;fontColor=#333333;swimlaneLine=0;" parent="ofAZB1A1xBXTMgq2kkwl-76" vertex="1">
          <mxGeometry y="60" width="200" height="30" as="geometry" />
        </mxCell>
        <mxCell id="ofAZB1A1xBXTMgq2kkwl-79" value="shipping_fee" style="text;strokeColor=#666666;fillColor=#f5f5f5;align=left;verticalAlign=middle;spacingLeft=4;spacingRight=4;overflow=hidden;points=[[0,0.5],[1,0.5]];portConstraint=eastwest;rotatable=0;whiteSpace=wrap;html=1;fontColor=#333333;swimlaneLine=0;" parent="ofAZB1A1xBXTMgq2kkwl-76" vertex="1">
          <mxGeometry y="90" width="200" height="30" as="geometry" />
        </mxCell>
        <mxCell id="ofAZB1A1xBXTMgq2kkwl-81" value="payment_method (COD, Online)" style="text;strokeColor=#666666;fillColor=#f5f5f5;align=left;verticalAlign=middle;spacingLeft=4;spacingRight=4;overflow=hidden;points=[[0,0.5],[1,0.5]];portConstraint=eastwest;rotatable=0;whiteSpace=wrap;html=1;fontColor=#333333;swimlaneLine=0;" parent="ofAZB1A1xBXTMgq2kkwl-76" vertex="1">
          <mxGeometry y="120" width="200" height="30" as="geometry" />
        </mxCell>
        <mxCell id="ofAZB1A1xBXTMgq2kkwl-86" value="cancel_reason" style="text;strokeColor=#666666;fillColor=#f5f5f5;align=left;verticalAlign=middle;spacingLeft=4;spacingRight=4;overflow=hidden;points=[[0,0.5],[1,0.5]];portConstraint=eastwest;rotatable=0;whiteSpace=wrap;html=1;fontColor=#333333;swimlaneLine=0;" parent="ofAZB1A1xBXTMgq2kkwl-76" vertex="1">
          <mxGeometry y="150" width="200" height="30" as="geometry" />
        </mxCell>
        <mxCell id="ofAZB1A1xBXTMgq2kkwl-82" value="user_ID (F key)" style="text;strokeColor=#666666;fillColor=#f5f5f5;align=left;verticalAlign=middle;spacingLeft=4;spacingRight=4;overflow=hidden;points=[[0,0.5],[1,0.5]];portConstraint=eastwest;rotatable=0;whiteSpace=wrap;html=1;fontColor=#333333;fontStyle=6;swimlaneLine=0;" parent="ofAZB1A1xBXTMgq2kkwl-76" vertex="1">
          <mxGeometry y="180" width="200" height="30" as="geometry" />
        </mxCell>
        <mxCell id="ofAZB1A1xBXTMgq2kkwl-83" value="seller_ID (F key)" style="text;strokeColor=#666666;fillColor=#f5f5f5;align=left;verticalAlign=middle;spacingLeft=4;spacingRight=4;overflow=hidden;points=[[0,0.5],[1,0.5]];portConstraint=eastwest;rotatable=0;whiteSpace=wrap;html=1;fontColor=#333333;fontStyle=6;swimlaneLine=0;" parent="ofAZB1A1xBXTMgq2kkwl-76" vertex="1">
          <mxGeometry y="210" width="200" height="30" as="geometry" />
        </mxCell>
        <mxCell id="ofAZB1A1xBXTMgq2kkwl-253" value="shipping_fee_ID (F key)" style="text;strokeColor=#666666;fillColor=#f5f5f5;align=left;verticalAlign=middle;spacingLeft=4;spacingRight=4;overflow=hidden;points=[[0,0.5],[1,0.5]];portConstraint=eastwest;rotatable=0;whiteSpace=wrap;html=1;fontColor=#333333;fontStyle=6;swimlaneLine=0;" parent="ofAZB1A1xBXTMgq2kkwl-76" vertex="1">
          <mxGeometry y="240" width="200" height="30" as="geometry" />
        </mxCell>
        <mxCell id="ofAZB1A1xBXTMgq2kkwl-163" value="coupon_ID (F key)" style="text;strokeColor=#666666;fillColor=#f5f5f5;align=left;verticalAlign=middle;spacingLeft=4;spacingRight=4;overflow=hidden;points=[[0,0.5],[1,0.5]];portConstraint=eastwest;rotatable=0;whiteSpace=wrap;html=1;fontColor=#333333;fontStyle=6;swimlaneLine=0;" parent="ofAZB1A1xBXTMgq2kkwl-76" vertex="1">
          <mxGeometry y="270" width="200" height="30" as="geometry" />
        </mxCell>
        <mxCell id="ofAZB1A1xBXTMgq2kkwl-87" style="edgeStyle=orthogonalEdgeStyle;rounded=0;orthogonalLoop=1;jettySize=auto;html=1;fontFamily=Helvetica;fontSize=12;fontColor=default;fontStyle=0;swimlaneLine=0;" parent="WIyWlLk6GJQsqaUBKTNV-1" source="ofAZB1A1xBXTMgq2kkwl-0" target="ofAZB1A1xBXTMgq2kkwl-82" edge="1">
          <mxGeometry relative="1" as="geometry">
            <Array as="points">
              <mxPoint x="1423" y="726" />
            </Array>
          </mxGeometry>
        </mxCell>
        <mxCell id="ofAZB1A1xBXTMgq2kkwl-89" value="Orders_Items" style="swimlane;fontStyle=0;childLayout=stackLayout;horizontal=1;startSize=30;horizontalStack=0;resizeParent=1;resizeParentMax=0;resizeLast=0;collapsible=1;marginBottom=0;whiteSpace=wrap;html=1;fillColor=#dae8fc;strokeColor=#6c8ebf;fontSize=16;swimlaneLine=0;" parent="WIyWlLk6GJQsqaUBKTNV-1" vertex="1">
          <mxGeometry x="1713" y="876" width="200" height="180" as="geometry" />
        </mxCell>
        <mxCell id="ofAZB1A1xBXTMgq2kkwl-90" value="order_item_ID (P key)" style="text;strokeColor=#666666;fillColor=#f5f5f5;align=left;verticalAlign=middle;spacingLeft=4;spacingRight=4;overflow=hidden;points=[[0,0.5],[1,0.5]];portConstraint=eastwest;rotatable=0;whiteSpace=wrap;html=1;fontStyle=1;horizontal=1;fontColor=#333333;swimlaneLine=0;" parent="ofAZB1A1xBXTMgq2kkwl-89" vertex="1">
          <mxGeometry y="30" width="200" height="30" as="geometry" />
        </mxCell>
        <mxCell id="ofAZB1A1xBXTMgq2kkwl-91" value="quantity" style="text;strokeColor=#666666;fillColor=#f5f5f5;align=left;verticalAlign=middle;spacingLeft=4;spacingRight=4;overflow=hidden;points=[[0,0.5],[1,0.5]];portConstraint=eastwest;rotatable=0;whiteSpace=wrap;html=1;fontColor=#333333;swimlaneLine=0;" parent="ofAZB1A1xBXTMgq2kkwl-89" vertex="1">
          <mxGeometry y="60" width="200" height="30" as="geometry" />
        </mxCell>
        <mxCell id="ofAZB1A1xBXTMgq2kkwl-92" value="price" style="text;strokeColor=#666666;fillColor=#f5f5f5;align=left;verticalAlign=middle;spacingLeft=4;spacingRight=4;overflow=hidden;points=[[0,0.5],[1,0.5]];portConstraint=eastwest;rotatable=0;whiteSpace=wrap;html=1;fontColor=#333333;swimlaneLine=0;" parent="ofAZB1A1xBXTMgq2kkwl-89" vertex="1">
          <mxGeometry y="90" width="200" height="30" as="geometry" />
        </mxCell>
        <mxCell id="ofAZB1A1xBXTMgq2kkwl-98" value="order_ID (F key)" style="text;strokeColor=#666666;fillColor=#f5f5f5;align=left;verticalAlign=middle;spacingLeft=4;spacingRight=4;overflow=hidden;points=[[0,0.5],[1,0.5]];portConstraint=eastwest;rotatable=0;whiteSpace=wrap;html=1;fontColor=#333333;fontStyle=6;swimlaneLine=0;" parent="ofAZB1A1xBXTMgq2kkwl-89" vertex="1">
          <mxGeometry y="120" width="200" height="30" as="geometry" />
        </mxCell>
        <mxCell id="ofAZB1A1xBXTMgq2kkwl-99" value="product_ID (F key)" style="text;strokeColor=#666666;fillColor=#f5f5f5;align=left;verticalAlign=middle;spacingLeft=4;spacingRight=4;overflow=hidden;points=[[0,0.5],[1,0.5]];portConstraint=eastwest;rotatable=0;whiteSpace=wrap;html=1;fontColor=#333333;fontStyle=6;swimlaneLine=0;" parent="ofAZB1A1xBXTMgq2kkwl-89" vertex="1">
          <mxGeometry y="150" width="200" height="30" as="geometry" />
        </mxCell>
        <mxCell id="ofAZB1A1xBXTMgq2kkwl-102" value="Reviews" style="swimlane;fontStyle=0;childLayout=stackLayout;horizontal=1;startSize=30;horizontalStack=0;resizeParent=1;resizeParentMax=0;resizeLast=0;collapsible=1;marginBottom=0;whiteSpace=wrap;html=1;fillColor=#dae8fc;strokeColor=#6c8ebf;fontSize=16;swimlaneLine=0;" parent="WIyWlLk6GJQsqaUBKTNV-1" vertex="1">
          <mxGeometry x="443" y="232" width="200" height="180" as="geometry" />
        </mxCell>
        <mxCell id="ofAZB1A1xBXTMgq2kkwl-103" value="review_ID (P key)" style="text;strokeColor=#666666;fillColor=#f5f5f5;align=left;verticalAlign=middle;spacingLeft=4;spacingRight=4;overflow=hidden;points=[[0,0.5],[1,0.5]];portConstraint=eastwest;rotatable=0;whiteSpace=wrap;html=1;fontStyle=1;horizontal=1;fontColor=#333333;swimlaneLine=0;" parent="ofAZB1A1xBXTMgq2kkwl-102" vertex="1">
          <mxGeometry y="30" width="200" height="30" as="geometry" />
        </mxCell>
        <mxCell id="ofAZB1A1xBXTMgq2kkwl-104" value="rating" style="text;strokeColor=#666666;fillColor=#f5f5f5;align=left;verticalAlign=middle;spacingLeft=4;spacingRight=4;overflow=hidden;points=[[0,0.5],[1,0.5]];portConstraint=eastwest;rotatable=0;whiteSpace=wrap;html=1;fontColor=#333333;swimlaneLine=0;" parent="ofAZB1A1xBXTMgq2kkwl-102" vertex="1">
          <mxGeometry y="60" width="200" height="30" as="geometry" />
        </mxCell>
        <mxCell id="ofAZB1A1xBXTMgq2kkwl-105" value="comment" style="text;strokeColor=#666666;fillColor=#f5f5f5;align=left;verticalAlign=middle;spacingLeft=4;spacingRight=4;overflow=hidden;points=[[0,0.5],[1,0.5]];portConstraint=eastwest;rotatable=0;whiteSpace=wrap;html=1;fontColor=#333333;swimlaneLine=0;" parent="ofAZB1A1xBXTMgq2kkwl-102" vertex="1">
          <mxGeometry y="90" width="200" height="30" as="geometry" />
        </mxCell>
        <mxCell id="ofAZB1A1xBXTMgq2kkwl-106" value="user_ID (F key)" style="text;strokeColor=#666666;fillColor=#f5f5f5;align=left;verticalAlign=middle;spacingLeft=4;spacingRight=4;overflow=hidden;points=[[0,0.5],[1,0.5]];portConstraint=eastwest;rotatable=0;whiteSpace=wrap;html=1;fontColor=#333333;fontStyle=6;swimlaneLine=0;" parent="ofAZB1A1xBXTMgq2kkwl-102" vertex="1">
          <mxGeometry y="120" width="200" height="30" as="geometry" />
        </mxCell>
        <mxCell id="ofAZB1A1xBXTMgq2kkwl-107" value="product_ID (F key)" style="text;strokeColor=#666666;fillColor=#f5f5f5;align=left;verticalAlign=middle;spacingLeft=4;spacingRight=4;overflow=hidden;points=[[0,0.5],[1,0.5]];portConstraint=eastwest;rotatable=0;whiteSpace=wrap;html=1;fontColor=#333333;fontStyle=6;swimlaneLine=0;" parent="ofAZB1A1xBXTMgq2kkwl-102" vertex="1">
          <mxGeometry y="150" width="200" height="30" as="geometry" />
        </mxCell>
        <mxCell id="ofAZB1A1xBXTMgq2kkwl-167" style="edgeStyle=orthogonalEdgeStyle;rounded=0;orthogonalLoop=1;jettySize=auto;html=1;fontFamily=Helvetica;fontSize=12;fontColor=default;fontStyle=0;swimlaneLine=0;" parent="WIyWlLk6GJQsqaUBKTNV-1" source="ofAZB1A1xBXTMgq2kkwl-108" target="ofAZB1A1xBXTMgq2kkwl-163" edge="1">
          <mxGeometry relative="1" as="geometry">
            <Array as="points">
              <mxPoint x="2053" y="816" />
            </Array>
          </mxGeometry>
        </mxCell>
        <mxCell id="ofAZB1A1xBXTMgq2kkwl-108" value="Coupons" style="swimlane;fontStyle=0;childLayout=stackLayout;horizontal=1;startSize=30;horizontalStack=0;resizeParent=1;resizeParentMax=0;resizeLast=0;collapsible=1;marginBottom=0;whiteSpace=wrap;html=1;fillColor=#dae8fc;strokeColor=#6c8ebf;fontSize=16;swimlaneLine=0;" parent="WIyWlLk6GJQsqaUBKTNV-1" vertex="1">
          <mxGeometry x="1883" y="72" width="200" height="390" as="geometry" />
        </mxCell>
        <mxCell id="ofAZB1A1xBXTMgq2kkwl-109" value="coupon_ID (P key)" style="text;strokeColor=#666666;fillColor=#f5f5f5;align=left;verticalAlign=middle;spacingLeft=4;spacingRight=4;overflow=hidden;points=[[0,0.5],[1,0.5]];portConstraint=eastwest;rotatable=0;whiteSpace=wrap;html=1;fontStyle=1;horizontal=1;fontColor=#333333;swimlaneLine=0;" parent="ofAZB1A1xBXTMgq2kkwl-108" vertex="1">
          <mxGeometry y="30" width="200" height="30" as="geometry" />
        </mxCell>
        <mxCell id="ofAZB1A1xBXTMgq2kkwl-110" value="code (unique)" style="text;strokeColor=#666666;fillColor=#f5f5f5;align=left;verticalAlign=middle;spacingLeft=4;spacingRight=4;overflow=hidden;points=[[0,0.5],[1,0.5]];portConstraint=eastwest;rotatable=0;whiteSpace=wrap;html=1;fontColor=#333333;swimlaneLine=0;" parent="ofAZB1A1xBXTMgq2kkwl-108" vertex="1">
          <mxGeometry y="60" width="200" height="30" as="geometry" />
        </mxCell>
        <mxCell id="ofAZB1A1xBXTMgq2kkwl-111" value="description" style="text;strokeColor=#666666;fillColor=#f5f5f5;align=left;verticalAlign=middle;spacingLeft=4;spacingRight=4;overflow=hidden;points=[[0,0.5],[1,0.5]];portConstraint=eastwest;rotatable=0;whiteSpace=wrap;html=1;fontColor=#333333;swimlaneLine=0;" parent="ofAZB1A1xBXTMgq2kkwl-108" vertex="1">
          <mxGeometry y="90" width="200" height="30" as="geometry" />
        </mxCell>
        <mxCell id="ofAZB1A1xBXTMgq2kkwl-114" value="discount_type (percentage, fixed)" style="text;strokeColor=#666666;fillColor=#f5f5f5;align=left;verticalAlign=middle;spacingLeft=4;spacingRight=4;overflow=hidden;points=[[0,0.5],[1,0.5]];portConstraint=eastwest;rotatable=0;whiteSpace=wrap;html=1;fontColor=#333333;swimlaneLine=0;" parent="ofAZB1A1xBXTMgq2kkwl-108" vertex="1">
          <mxGeometry y="120" width="200" height="30" as="geometry" />
        </mxCell>
        <mxCell id="ofAZB1A1xBXTMgq2kkwl-228" value="discount_value" style="text;strokeColor=#666666;fillColor=#f5f5f5;align=left;verticalAlign=middle;spacingLeft=4;spacingRight=4;overflow=hidden;points=[[0,0.5],[1,0.5]];portConstraint=eastwest;rotatable=0;whiteSpace=wrap;html=1;fontColor=#333333;swimlaneLine=0;" parent="ofAZB1A1xBXTMgq2kkwl-108" vertex="1">
          <mxGeometry y="150" width="200" height="30" as="geometry" />
        </mxCell>
        <mxCell id="ofAZB1A1xBXTMgq2kkwl-115" value="maximum_discount" style="text;strokeColor=#666666;fillColor=#f5f5f5;align=left;verticalAlign=middle;spacingLeft=4;spacingRight=4;overflow=hidden;points=[[0,0.5],[1,0.5]];portConstraint=eastwest;rotatable=0;whiteSpace=wrap;html=1;fontColor=#333333;swimlaneLine=0;" parent="ofAZB1A1xBXTMgq2kkwl-108" vertex="1">
          <mxGeometry y="180" width="200" height="30" as="geometry" />
        </mxCell>
        <mxCell id="ofAZB1A1xBXTMgq2kkwl-116" value="minimum_order_value" style="text;strokeColor=#666666;fillColor=#f5f5f5;align=left;verticalAlign=middle;spacingLeft=4;spacingRight=4;overflow=hidden;points=[[0,0.5],[1,0.5]];portConstraint=eastwest;rotatable=0;whiteSpace=wrap;html=1;fontColor=#333333;swimlaneLine=0;" parent="ofAZB1A1xBXTMgq2kkwl-108" vertex="1">
          <mxGeometry y="210" width="200" height="30" as="geometry" />
        </mxCell>
        <mxCell id="ofAZB1A1xBXTMgq2kkwl-165" value="usage_limit" style="text;strokeColor=#666666;fillColor=#f5f5f5;align=left;verticalAlign=middle;spacingLeft=4;spacingRight=4;overflow=hidden;points=[[0,0.5],[1,0.5]];portConstraint=eastwest;rotatable=0;whiteSpace=wrap;html=1;fontColor=#333333;swimlaneLine=0;" parent="ofAZB1A1xBXTMgq2kkwl-108" vertex="1">
          <mxGeometry y="240" width="200" height="30" as="geometry" />
        </mxCell>
        <mxCell id="ofAZB1A1xBXTMgq2kkwl-164" value="usage_count" style="text;strokeColor=#666666;fillColor=#f5f5f5;align=left;verticalAlign=middle;spacingLeft=4;spacingRight=4;overflow=hidden;points=[[0,0.5],[1,0.5]];portConstraint=eastwest;rotatable=0;whiteSpace=wrap;html=1;fontColor=#333333;swimlaneLine=0;" parent="ofAZB1A1xBXTMgq2kkwl-108" vertex="1">
          <mxGeometry y="270" width="200" height="30" as="geometry" />
        </mxCell>
        <mxCell id="ofAZB1A1xBXTMgq2kkwl-117" value="start_date" style="text;strokeColor=#666666;fillColor=#f5f5f5;align=left;verticalAlign=middle;spacingLeft=4;spacingRight=4;overflow=hidden;points=[[0,0.5],[1,0.5]];portConstraint=eastwest;rotatable=0;whiteSpace=wrap;html=1;fontColor=#333333;swimlaneLine=0;" parent="ofAZB1A1xBXTMgq2kkwl-108" vertex="1">
          <mxGeometry y="300" width="200" height="30" as="geometry" />
        </mxCell>
        <mxCell id="ofAZB1A1xBXTMgq2kkwl-159" value="end_date" style="text;strokeColor=#666666;fillColor=#f5f5f5;align=left;verticalAlign=middle;spacingLeft=4;spacingRight=4;overflow=hidden;points=[[0,0.5],[1,0.5]];portConstraint=eastwest;rotatable=0;whiteSpace=wrap;html=1;fontColor=#333333;swimlaneLine=0;" parent="ofAZB1A1xBXTMgq2kkwl-108" vertex="1">
          <mxGeometry y="330" width="200" height="30" as="geometry" />
        </mxCell>
        <mxCell id="ofAZB1A1xBXTMgq2kkwl-112" value="seller_ID (F key)" style="text;strokeColor=#666666;fillColor=#f5f5f5;align=left;verticalAlign=middle;spacingLeft=4;spacingRight=4;overflow=hidden;points=[[0,0.5],[1,0.5]];portConstraint=eastwest;rotatable=0;whiteSpace=wrap;html=1;fontColor=#333333;fontStyle=6;swimlaneLine=0;" parent="ofAZB1A1xBXTMgq2kkwl-108" vertex="1">
          <mxGeometry y="360" width="200" height="30" as="geometry" />
        </mxCell>
        <mxCell id="ofAZB1A1xBXTMgq2kkwl-182" style="edgeStyle=orthogonalEdgeStyle;rounded=0;orthogonalLoop=1;jettySize=auto;html=1;fontFamily=Helvetica;fontSize=12;fontColor=default;fontStyle=0;swimlaneLine=0;" parent="WIyWlLk6GJQsqaUBKTNV-1" source="ofAZB1A1xBXTMgq2kkwl-169" target="ofAZB1A1xBXTMgq2kkwl-180" edge="1">
          <mxGeometry relative="1" as="geometry" />
        </mxCell>
        <mxCell id="ofAZB1A1xBXTMgq2kkwl-169" value="Flash_Sale_Times" style="swimlane;fontStyle=0;childLayout=stackLayout;horizontal=1;startSize=30;horizontalStack=0;resizeParent=1;resizeParentMax=0;resizeLast=0;collapsible=1;marginBottom=0;whiteSpace=wrap;html=1;fillColor=#dae8fc;strokeColor=#6c8ebf;fontSize=16;swimlaneLine=0;" parent="WIyWlLk6GJQsqaUBKTNV-1" vertex="1">
          <mxGeometry x="328" y="521" width="170" height="150" as="geometry" />
        </mxCell>
        <mxCell id="ofAZB1A1xBXTMgq2kkwl-170" value="flash_sale_time_ID (P key)" style="text;strokeColor=#666666;fillColor=#f5f5f5;align=left;verticalAlign=middle;spacingLeft=4;spacingRight=4;overflow=hidden;points=[[0,0.5],[1,0.5]];portConstraint=eastwest;rotatable=0;whiteSpace=wrap;html=1;fontStyle=1;horizontal=1;fontColor=#333333;swimlaneLine=0;" parent="ofAZB1A1xBXTMgq2kkwl-169" vertex="1">
          <mxGeometry y="30" width="170" height="30" as="geometry" />
        </mxCell>
        <mxCell id="ofAZB1A1xBXTMgq2kkwl-171" value="description" style="text;strokeColor=#666666;fillColor=#f5f5f5;align=left;verticalAlign=middle;spacingLeft=4;spacingRight=4;overflow=hidden;points=[[0,0.5],[1,0.5]];portConstraint=eastwest;rotatable=0;whiteSpace=wrap;html=1;fontColor=#333333;swimlaneLine=0;" parent="ofAZB1A1xBXTMgq2kkwl-169" vertex="1">
          <mxGeometry y="60" width="170" height="30" as="geometry" />
        </mxCell>
        <mxCell id="ofAZB1A1xBXTMgq2kkwl-172" value="time_end" style="text;strokeColor=#666666;fillColor=#f5f5f5;align=left;verticalAlign=middle;spacingLeft=4;spacingRight=4;overflow=hidden;points=[[0,0.5],[1,0.5]];portConstraint=eastwest;rotatable=0;whiteSpace=wrap;html=1;fontColor=#333333;swimlaneLine=0;" parent="ofAZB1A1xBXTMgq2kkwl-169" vertex="1">
          <mxGeometry y="90" width="170" height="30" as="geometry" />
        </mxCell>
        <mxCell id="ofAZB1A1xBXTMgq2kkwl-173" value="time_start" style="text;strokeColor=#666666;fillColor=#f5f5f5;align=left;verticalAlign=middle;spacingLeft=4;spacingRight=4;overflow=hidden;points=[[0,0.5],[1,0.5]];portConstraint=eastwest;rotatable=0;whiteSpace=wrap;html=1;fontColor=#333333;swimlaneLine=0;" parent="ofAZB1A1xBXTMgq2kkwl-169" vertex="1">
          <mxGeometry y="120" width="170" height="30" as="geometry" />
        </mxCell>
        <mxCell id="ofAZB1A1xBXTMgq2kkwl-174" value="Flash_Sale_Products" style="swimlane;fontStyle=0;childLayout=stackLayout;horizontal=1;startSize=30;horizontalStack=0;resizeParent=1;resizeParentMax=0;resizeLast=0;collapsible=1;marginBottom=0;whiteSpace=wrap;html=1;fillColor=#dae8fc;strokeColor=#6c8ebf;fontSize=16;swimlaneLine=0;" parent="WIyWlLk6GJQsqaUBKTNV-1" vertex="1">
          <mxGeometry x="569" y="441" width="200" height="240" as="geometry" />
        </mxCell>
        <mxCell id="ofAZB1A1xBXTMgq2kkwl-175" value="flash_sale_product_ID (P key)" style="text;strokeColor=#666666;fillColor=#f5f5f5;align=left;verticalAlign=middle;spacingLeft=4;spacingRight=4;overflow=hidden;points=[[0,0.5],[1,0.5]];portConstraint=eastwest;rotatable=0;whiteSpace=wrap;html=1;fontStyle=1;horizontal=1;fontColor=#333333;swimlaneLine=0;" parent="ofAZB1A1xBXTMgq2kkwl-174" vertex="1">
          <mxGeometry y="30" width="200" height="30" as="geometry" />
        </mxCell>
        <mxCell id="ofAZB1A1xBXTMgq2kkwl-176" value="price" style="text;strokeColor=#666666;fillColor=#f5f5f5;align=left;verticalAlign=middle;spacingLeft=4;spacingRight=4;overflow=hidden;points=[[0,0.5],[1,0.5]];portConstraint=eastwest;rotatable=0;whiteSpace=wrap;html=1;fontColor=#333333;swimlaneLine=0;" parent="ofAZB1A1xBXTMgq2kkwl-174" vertex="1">
          <mxGeometry y="60" width="200" height="30" as="geometry" />
        </mxCell>
        <mxCell id="ofAZB1A1xBXTMgq2kkwl-177" value="quantity" style="text;strokeColor=#666666;fillColor=#f5f5f5;align=left;verticalAlign=middle;spacingLeft=4;spacingRight=4;overflow=hidden;points=[[0,0.5],[1,0.5]];portConstraint=eastwest;rotatable=0;whiteSpace=wrap;html=1;fontColor=#333333;swimlaneLine=0;" parent="ofAZB1A1xBXTMgq2kkwl-174" vertex="1">
          <mxGeometry y="90" width="200" height="30" as="geometry" />
        </mxCell>
        <mxCell id="ofAZB1A1xBXTMgq2kkwl-178" value="sold_quantity" style="text;strokeColor=#666666;fillColor=#f5f5f5;align=left;verticalAlign=middle;spacingLeft=4;spacingRight=4;overflow=hidden;points=[[0,0.5],[1,0.5]];portConstraint=eastwest;rotatable=0;whiteSpace=wrap;html=1;fontColor=#333333;swimlaneLine=0;" parent="ofAZB1A1xBXTMgq2kkwl-174" vertex="1">
          <mxGeometry y="120" width="200" height="30" as="geometry" />
        </mxCell>
        <mxCell id="ofAZB1A1xBXTMgq2kkwl-229" value="date" style="text;strokeColor=#666666;fillColor=#f5f5f5;align=left;verticalAlign=middle;spacingLeft=4;spacingRight=4;overflow=hidden;points=[[0,0.5],[1,0.5]];portConstraint=eastwest;rotatable=0;whiteSpace=wrap;html=1;fontColor=#333333;swimlaneLine=0;" parent="ofAZB1A1xBXTMgq2kkwl-174" vertex="1">
          <mxGeometry y="150" width="200" height="30" as="geometry" />
        </mxCell>
        <mxCell id="ofAZB1A1xBXTMgq2kkwl-230" value="product_ID&amp;nbsp;&amp;nbsp;(F key)" style="text;strokeColor=#666666;fillColor=#f5f5f5;align=left;verticalAlign=middle;spacingLeft=4;spacingRight=4;overflow=hidden;points=[[0,0.5],[1,0.5]];portConstraint=eastwest;rotatable=0;whiteSpace=wrap;html=1;fontColor=#333333;fontStyle=6;swimlaneLine=0;" parent="ofAZB1A1xBXTMgq2kkwl-174" vertex="1">
          <mxGeometry y="180" width="200" height="30" as="geometry" />
        </mxCell>
        <mxCell id="ofAZB1A1xBXTMgq2kkwl-180" value="flash_sale_time_ID&amp;nbsp;&amp;nbsp;(F key)" style="text;strokeColor=#666666;fillColor=#f5f5f5;align=left;verticalAlign=middle;spacingLeft=4;spacingRight=4;overflow=hidden;points=[[0,0.5],[1,0.5]];portConstraint=eastwest;rotatable=0;whiteSpace=wrap;html=1;fontColor=#333333;fontStyle=6;swimlaneLine=0;" parent="ofAZB1A1xBXTMgq2kkwl-174" vertex="1">
          <mxGeometry y="210" width="200" height="30" as="geometry" />
        </mxCell>
        <mxCell id="ofAZB1A1xBXTMgq2kkwl-226" style="edgeStyle=orthogonalEdgeStyle;rounded=0;orthogonalLoop=1;jettySize=auto;html=1;fontFamily=Helvetica;fontSize=12;fontColor=default;fontStyle=0;swimlaneLine=0;" parent="WIyWlLk6GJQsqaUBKTNV-1" source="ofAZB1A1xBXTMgq2kkwl-188" target="ofAZB1A1xBXTMgq2kkwl-197" edge="1">
          <mxGeometry relative="1" as="geometry" />
        </mxCell>
        <mxCell id="ofAZB1A1xBXTMgq2kkwl-188" value="Product_Attributes" style="swimlane;fontStyle=0;childLayout=stackLayout;horizontal=1;startSize=30;horizontalStack=0;resizeParent=1;resizeParentMax=0;resizeLast=0;collapsible=1;marginBottom=0;whiteSpace=wrap;html=1;fillColor=#dae8fc;strokeColor=#6c8ebf;fontSize=16;swimlaneLine=0;" parent="WIyWlLk6GJQsqaUBKTNV-1" vertex="1">
          <mxGeometry x="348" y="761" width="200" height="90" as="geometry" />
        </mxCell>
        <mxCell id="ofAZB1A1xBXTMgq2kkwl-189" value="product_attribute_ID (P key)" style="text;strokeColor=#666666;fillColor=#f5f5f5;align=left;verticalAlign=middle;spacingLeft=4;spacingRight=4;overflow=hidden;points=[[0,0.5],[1,0.5]];portConstraint=eastwest;rotatable=0;whiteSpace=wrap;html=1;fontStyle=1;horizontal=1;fontColor=#333333;swimlaneLine=0;" parent="ofAZB1A1xBXTMgq2kkwl-188" vertex="1">
          <mxGeometry y="30" width="200" height="30" as="geometry" />
        </mxCell>
        <mxCell id="ofAZB1A1xBXTMgq2kkwl-190" value="name" style="text;strokeColor=#666666;fillColor=#f5f5f5;align=left;verticalAlign=middle;spacingLeft=4;spacingRight=4;overflow=hidden;points=[[0,0.5],[1,0.5]];portConstraint=eastwest;rotatable=0;whiteSpace=wrap;html=1;fontColor=#333333;swimlaneLine=0;" parent="ofAZB1A1xBXTMgq2kkwl-188" vertex="1">
          <mxGeometry y="60" width="200" height="30" as="geometry" />
        </mxCell>
        <mxCell id="ofAZB1A1xBXTMgq2kkwl-215" style="edgeStyle=orthogonalEdgeStyle;rounded=0;orthogonalLoop=1;jettySize=auto;html=1;fontFamily=Helvetica;fontSize=12;fontColor=default;fontStyle=0;swimlaneLine=0;" parent="WIyWlLk6GJQsqaUBKTNV-1" source="ofAZB1A1xBXTMgq2kkwl-194" target="ofAZB1A1xBXTMgq2kkwl-214" edge="1">
          <mxGeometry relative="1" as="geometry">
            <mxPoint x="939" y="651" as="targetPoint" />
            <Array as="points">
              <mxPoint x="888" y="651" />
            </Array>
          </mxGeometry>
        </mxCell>
        <mxCell id="ofAZB1A1xBXTMgq2kkwl-194" value="Product_Attribute_Values" style="swimlane;fontStyle=0;childLayout=stackLayout;horizontal=1;startSize=30;horizontalStack=0;resizeParent=1;resizeParentMax=0;resizeLast=0;collapsible=1;marginBottom=0;whiteSpace=wrap;html=1;fillColor=#dae8fc;strokeColor=#6c8ebf;fontSize=16;swimlaneLine=0;" parent="WIyWlLk6GJQsqaUBKTNV-1" vertex="1">
          <mxGeometry x="623" y="731" width="226" height="120" as="geometry" />
        </mxCell>
        <mxCell id="ofAZB1A1xBXTMgq2kkwl-195" value="product_attribute_value_ID (P key)" style="text;strokeColor=#666666;fillColor=#f5f5f5;align=left;verticalAlign=middle;spacingLeft=4;spacingRight=4;overflow=hidden;points=[[0,0.5],[1,0.5]];portConstraint=eastwest;rotatable=0;whiteSpace=wrap;html=1;fontStyle=1;horizontal=1;fontColor=#333333;swimlaneLine=0;" parent="ofAZB1A1xBXTMgq2kkwl-194" vertex="1">
          <mxGeometry y="30" width="226" height="30" as="geometry" />
        </mxCell>
        <mxCell id="ofAZB1A1xBXTMgq2kkwl-196" value="value" style="text;strokeColor=#666666;fillColor=#f5f5f5;align=left;verticalAlign=middle;spacingLeft=4;spacingRight=4;overflow=hidden;points=[[0,0.5],[1,0.5]];portConstraint=eastwest;rotatable=0;whiteSpace=wrap;html=1;fontColor=#333333;swimlaneLine=0;" parent="ofAZB1A1xBXTMgq2kkwl-194" vertex="1">
          <mxGeometry y="60" width="226" height="30" as="geometry" />
        </mxCell>
        <mxCell id="ofAZB1A1xBXTMgq2kkwl-197" value="product_attribute_ID (F key)" style="text;strokeColor=#666666;fillColor=#f5f5f5;align=left;verticalAlign=middle;spacingLeft=4;spacingRight=4;overflow=hidden;points=[[0,0.5],[1,0.5]];portConstraint=eastwest;rotatable=0;whiteSpace=wrap;html=1;fontColor=#333333;fontStyle=6;swimlaneLine=0;" parent="ofAZB1A1xBXTMgq2kkwl-194" vertex="1">
          <mxGeometry y="90" width="226" height="30" as="geometry" />
        </mxCell>
        <mxCell id="ofAZB1A1xBXTMgq2kkwl-216" style="edgeStyle=orthogonalEdgeStyle;rounded=0;orthogonalLoop=1;jettySize=auto;html=1;fontFamily=Helvetica;fontSize=12;fontColor=default;fontStyle=0;swimlaneLine=0;" parent="WIyWlLk6GJQsqaUBKTNV-1" source="ofAZB1A1xBXTMgq2kkwl-199" target="ofAZB1A1xBXTMgq2kkwl-210" edge="1">
          <mxGeometry relative="1" as="geometry">
            <Array as="points">
              <mxPoint x="1173" y="996" />
              <mxPoint x="1173" y="681" />
            </Array>
          </mxGeometry>
        </mxCell>
        <mxCell id="ofAZB1A1xBXTMgq2kkwl-223" style="edgeStyle=orthogonalEdgeStyle;rounded=0;orthogonalLoop=1;jettySize=auto;html=1;fontFamily=Helvetica;fontSize=12;fontColor=default;fontStyle=0;swimlaneLine=0;" parent="WIyWlLk6GJQsqaUBKTNV-1" source="ofAZB1A1xBXTMgq2kkwl-199" target="ofAZB1A1xBXTMgq2kkwl-74" edge="1">
          <mxGeometry relative="1" as="geometry">
            <Array as="points">
              <mxPoint x="603" y="911" />
              <mxPoint x="603" y="1046" />
            </Array>
          </mxGeometry>
        </mxCell>
        <mxCell id="ofAZB1A1xBXTMgq2kkwl-225" style="edgeStyle=orthogonalEdgeStyle;rounded=0;orthogonalLoop=1;jettySize=auto;html=1;fontFamily=Helvetica;fontSize=12;fontColor=default;fontStyle=0;swimlaneLine=0;" parent="WIyWlLk6GJQsqaUBKTNV-1" source="ofAZB1A1xBXTMgq2kkwl-199" target="ofAZB1A1xBXTMgq2kkwl-60" edge="1">
          <mxGeometry relative="1" as="geometry" />
        </mxCell>
        <mxCell id="ofAZB1A1xBXTMgq2kkwl-199" value="Product_Information" style="swimlane;fontStyle=0;childLayout=stackLayout;horizontal=1;startSize=30;horizontalStack=0;resizeParent=1;resizeParentMax=0;resizeLast=0;collapsible=1;marginBottom=0;whiteSpace=wrap;html=1;fillColor=#dae8fc;strokeColor=#6c8ebf;fontSize=16;swimlaneLine=0;" parent="WIyWlLk6GJQsqaUBKTNV-1" vertex="1">
          <mxGeometry x="916" y="881" width="217" height="210" as="geometry">
            <mxRectangle x="500" y="1000" width="180" height="30" as="alternateBounds" />
          </mxGeometry>
        </mxCell>
        <mxCell id="ofAZB1A1xBXTMgq2kkwl-200" value="product_info_ID (P key)" style="text;strokeColor=#666666;fillColor=#f5f5f5;align=left;verticalAlign=middle;spacingLeft=4;spacingRight=4;overflow=hidden;points=[[0,0.5],[1,0.5]];portConstraint=eastwest;rotatable=0;whiteSpace=wrap;html=1;fontStyle=1;horizontal=1;fontColor=#333333;swimlaneLine=0;" parent="ofAZB1A1xBXTMgq2kkwl-199" vertex="1">
          <mxGeometry y="30" width="217" height="30" as="geometry" />
        </mxCell>
        <mxCell id="ofAZB1A1xBXTMgq2kkwl-201" value="name" style="text;strokeColor=#666666;fillColor=#f5f5f5;align=left;verticalAlign=middle;spacingLeft=4;spacingRight=4;overflow=hidden;points=[[0,0.5],[1,0.5]];portConstraint=eastwest;rotatable=0;whiteSpace=wrap;html=1;fontColor=#333333;swimlaneLine=0;" parent="ofAZB1A1xBXTMgq2kkwl-199" vertex="1">
          <mxGeometry y="60" width="217" height="30" as="geometry" />
        </mxCell>
        <mxCell id="ofAZB1A1xBXTMgq2kkwl-202" value="description" style="text;strokeColor=#666666;fillColor=#f5f5f5;align=left;verticalAlign=middle;spacingLeft=4;spacingRight=4;overflow=hidden;points=[[0,0.5],[1,0.5]];portConstraint=eastwest;rotatable=0;whiteSpace=wrap;html=1;fontColor=#333333;swimlaneLine=0;" parent="ofAZB1A1xBXTMgq2kkwl-199" vertex="1">
          <mxGeometry y="90" width="217" height="30" as="geometry" />
        </mxCell>
        <mxCell id="ofAZB1A1xBXTMgq2kkwl-206" value="status (active, loked, hidden, deleted)" style="text;strokeColor=#666666;fillColor=#f5f5f5;align=left;verticalAlign=middle;spacingLeft=4;spacingRight=4;overflow=hidden;points=[[0,0.5],[1,0.5]];portConstraint=eastwest;rotatable=0;whiteSpace=wrap;html=1;fontColor=#333333;swimlaneLine=0;" parent="ofAZB1A1xBXTMgq2kkwl-199" vertex="1">
          <mxGeometry y="120" width="217" height="30" as="geometry" />
        </mxCell>
        <mxCell id="ofAZB1A1xBXTMgq2kkwl-208" value="category_ID (F key)" style="text;strokeColor=#666666;fillColor=#f5f5f5;align=left;verticalAlign=middle;spacingLeft=4;spacingRight=4;overflow=hidden;points=[[0,0.5],[1,0.5]];portConstraint=eastwest;rotatable=0;whiteSpace=wrap;html=1;fontColor=#333333;fontStyle=6;swimlaneLine=0;" parent="ofAZB1A1xBXTMgq2kkwl-199" vertex="1">
          <mxGeometry y="150" width="217" height="30" as="geometry" />
        </mxCell>
        <mxCell id="ofAZB1A1xBXTMgq2kkwl-207" value="seller_ID (F key)" style="text;strokeColor=#666666;fillColor=#f5f5f5;align=left;verticalAlign=middle;spacingLeft=4;spacingRight=4;overflow=hidden;points=[[0,0.5],[1,0.5]];portConstraint=eastwest;rotatable=0;whiteSpace=wrap;html=1;fontColor=#333333;fontStyle=6;swimlaneLine=0;" parent="ofAZB1A1xBXTMgq2kkwl-199" vertex="1">
          <mxGeometry y="180" width="217" height="30" as="geometry" />
        </mxCell>
        <mxCell id="ofAZB1A1xBXTMgq2kkwl-236" value="Carts" style="swimlane;fontStyle=0;childLayout=stackLayout;horizontal=1;startSize=30;horizontalStack=0;resizeParent=1;resizeParentMax=0;resizeLast=0;collapsible=1;marginBottom=0;whiteSpace=wrap;html=1;fillColor=#dae8fc;strokeColor=#6c8ebf;fontSize=16;swimlaneLine=0;" parent="WIyWlLk6GJQsqaUBKTNV-1" vertex="1">
          <mxGeometry x="1223" y="411" width="140" height="150" as="geometry" />
        </mxCell>
        <mxCell id="ofAZB1A1xBXTMgq2kkwl-237" value="cart_ID (P key)" style="text;strokeColor=#666666;fillColor=#f5f5f5;align=left;verticalAlign=middle;spacingLeft=4;spacingRight=4;overflow=hidden;points=[[0,0.5],[1,0.5]];portConstraint=eastwest;rotatable=0;whiteSpace=wrap;html=1;fontStyle=1;horizontal=1;fontColor=#333333;swimlaneLine=0;" parent="ofAZB1A1xBXTMgq2kkwl-236" vertex="1">
          <mxGeometry y="30" width="140" height="30" as="geometry" />
        </mxCell>
        <mxCell id="ofAZB1A1xBXTMgq2kkwl-238" value="quantity" style="text;strokeColor=#666666;fillColor=#f5f5f5;align=left;verticalAlign=middle;spacingLeft=4;spacingRight=4;overflow=hidden;points=[[0,0.5],[1,0.5]];portConstraint=eastwest;rotatable=0;whiteSpace=wrap;html=1;fontColor=#333333;swimlaneLine=0;" parent="ofAZB1A1xBXTMgq2kkwl-236" vertex="1">
          <mxGeometry y="60" width="140" height="30" as="geometry" />
        </mxCell>
        <mxCell id="ofAZB1A1xBXTMgq2kkwl-239" value="user_ID (F key)" style="text;strokeColor=#666666;fillColor=#f5f5f5;align=left;verticalAlign=middle;spacingLeft=4;spacingRight=4;overflow=hidden;points=[[0,0.5],[1,0.5]];portConstraint=eastwest;rotatable=0;whiteSpace=wrap;html=1;fontColor=#333333;fontStyle=6;swimlaneLine=0;" parent="ofAZB1A1xBXTMgq2kkwl-236" vertex="1">
          <mxGeometry y="90" width="140" height="30" as="geometry" />
        </mxCell>
        <mxCell id="ofAZB1A1xBXTMgq2kkwl-240" value="product_ID (F key)" style="text;strokeColor=#666666;fillColor=#f5f5f5;align=left;verticalAlign=middle;spacingLeft=4;spacingRight=4;overflow=hidden;points=[[0,0.5],[1,0.5]];portConstraint=eastwest;rotatable=0;whiteSpace=wrap;html=1;fontColor=#333333;fontStyle=6;swimlaneLine=0;" parent="ofAZB1A1xBXTMgq2kkwl-236" vertex="1">
          <mxGeometry y="120" width="140" height="30" as="geometry" />
        </mxCell>
        <mxCell id="ofAZB1A1xBXTMgq2kkwl-255" style="edgeStyle=orthogonalEdgeStyle;rounded=0;orthogonalLoop=1;jettySize=auto;html=1;fontFamily=Helvetica;fontSize=12;fontColor=default;fontStyle=0;swimlaneLine=0;" parent="WIyWlLk6GJQsqaUBKTNV-1" source="ofAZB1A1xBXTMgq2kkwl-243" target="ofAZB1A1xBXTMgq2kkwl-251" edge="1">
          <mxGeometry relative="1" as="geometry">
            <Array as="points">
              <mxPoint x="2013" y="545" />
              <mxPoint x="2013" y="746" />
            </Array>
          </mxGeometry>
        </mxCell>
        <mxCell id="ofAZB1A1xBXTMgq2kkwl-243" value="Shipping_Methods" style="swimlane;fontStyle=0;childLayout=stackLayout;horizontal=1;startSize=30;horizontalStack=0;resizeParent=1;resizeParentMax=0;resizeLast=0;collapsible=1;marginBottom=0;whiteSpace=wrap;html=1;fillColor=#dae8fc;strokeColor=#6c8ebf;fontSize=16;swimlaneLine=0;" parent="WIyWlLk6GJQsqaUBKTNV-1" vertex="1">
          <mxGeometry x="1813" y="500.5" width="170" height="90" as="geometry" />
        </mxCell>
        <mxCell id="ofAZB1A1xBXTMgq2kkwl-244" value="shiping_method_ID (P key)" style="text;strokeColor=#666666;fillColor=#f5f5f5;align=left;verticalAlign=middle;spacingLeft=4;spacingRight=4;overflow=hidden;points=[[0,0.5],[1,0.5]];portConstraint=eastwest;rotatable=0;whiteSpace=wrap;html=1;fontStyle=1;horizontal=1;fontColor=#333333;swimlaneLine=0;" parent="ofAZB1A1xBXTMgq2kkwl-243" vertex="1">
          <mxGeometry y="30" width="170" height="30" as="geometry" />
        </mxCell>
        <mxCell id="ofAZB1A1xBXTMgq2kkwl-245" value="description" style="text;strokeColor=#666666;fillColor=#f5f5f5;align=left;verticalAlign=middle;spacingLeft=4;spacingRight=4;overflow=hidden;points=[[0,0.5],[1,0.5]];portConstraint=eastwest;rotatable=0;whiteSpace=wrap;html=1;fontColor=#333333;swimlaneLine=0;" parent="ofAZB1A1xBXTMgq2kkwl-243" vertex="1">
          <mxGeometry y="60" width="170" height="30" as="geometry" />
        </mxCell>
        <mxCell id="ofAZB1A1xBXTMgq2kkwl-254" style="edgeStyle=orthogonalEdgeStyle;rounded=0;orthogonalLoop=1;jettySize=auto;html=1;fontFamily=Helvetica;fontSize=12;fontColor=default;fontStyle=0;swimlaneLine=0;" parent="WIyWlLk6GJQsqaUBKTNV-1" source="ofAZB1A1xBXTMgq2kkwl-248" target="ofAZB1A1xBXTMgq2kkwl-253" edge="1">
          <mxGeometry relative="1" as="geometry" />
        </mxCell>
        <mxCell id="ofAZB1A1xBXTMgq2kkwl-248" value="Shipping_Fees" style="swimlane;fontStyle=0;childLayout=stackLayout;horizontal=1;startSize=30;horizontalStack=0;resizeParent=1;resizeParentMax=0;resizeLast=0;collapsible=1;marginBottom=0;whiteSpace=wrap;html=1;fillColor=#dae8fc;strokeColor=#6c8ebf;fontSize=16;swimlaneLine=0;" parent="WIyWlLk6GJQsqaUBKTNV-1" vertex="1">
          <mxGeometry x="1767" y="641" width="170" height="120" as="geometry" />
        </mxCell>
        <mxCell id="ofAZB1A1xBXTMgq2kkwl-249" value="shipping_fee_ID (P key)" style="text;strokeColor=#666666;fillColor=#f5f5f5;align=left;verticalAlign=middle;spacingLeft=4;spacingRight=4;overflow=hidden;points=[[0,0.5],[1,0.5]];portConstraint=eastwest;rotatable=0;whiteSpace=wrap;html=1;fontStyle=1;horizontal=1;fontColor=#333333;swimlaneLine=0;" parent="ofAZB1A1xBXTMgq2kkwl-248" vertex="1">
          <mxGeometry y="30" width="170" height="30" as="geometry" />
        </mxCell>
        <mxCell id="ofAZB1A1xBXTMgq2kkwl-250" value="shipping_fee" style="text;strokeColor=#666666;fillColor=#f5f5f5;align=left;verticalAlign=middle;spacingLeft=4;spacingRight=4;overflow=hidden;points=[[0,0.5],[1,0.5]];portConstraint=eastwest;rotatable=0;whiteSpace=wrap;html=1;fontColor=#333333;swimlaneLine=0;" parent="ofAZB1A1xBXTMgq2kkwl-248" vertex="1">
          <mxGeometry y="60" width="170" height="30" as="geometry" />
        </mxCell>
        <mxCell id="ofAZB1A1xBXTMgq2kkwl-251" value="shipping_method_ID (F key)" style="text;strokeColor=#666666;fillColor=#f5f5f5;align=left;verticalAlign=middle;spacingLeft=4;spacingRight=4;overflow=hidden;points=[[0,0.5],[1,0.5]];portConstraint=eastwest;rotatable=0;whiteSpace=wrap;html=1;fontColor=#333333;fontStyle=6;swimlaneLine=0;" parent="ofAZB1A1xBXTMgq2kkwl-248" vertex="1">
          <mxGeometry y="90" width="170" height="30" as="geometry" />
        </mxCell>
        <mxCell id="ofAZB1A1xBXTMgq2kkwl-256" value="Order_Status" style="swimlane;fontStyle=0;childLayout=stackLayout;horizontal=1;startSize=30;horizontalStack=0;resizeParent=1;resizeParentMax=0;resizeLast=0;collapsible=1;marginBottom=0;whiteSpace=wrap;html=1;fillColor=#dae8fc;strokeColor=#6c8ebf;fontSize=16;swimlaneLine=0;" parent="WIyWlLk6GJQsqaUBKTNV-1" vertex="1">
          <mxGeometry x="1233" y="631" width="160" height="200" as="geometry" />
        </mxCell>
        <mxCell id="ofAZB1A1xBXTMgq2kkwl-257" value="order_status_ID (P key)" style="text;strokeColor=#666666;fillColor=#f5f5f5;align=left;verticalAlign=middle;spacingLeft=4;spacingRight=4;overflow=hidden;points=[[0,0.5],[1,0.5]];portConstraint=eastwest;rotatable=0;whiteSpace=wrap;html=1;fontStyle=1;horizontal=1;fontColor=#333333;swimlaneLine=0;" parent="ofAZB1A1xBXTMgq2kkwl-256" vertex="1">
          <mxGeometry y="30" width="160" height="30" as="geometry" />
        </mxCell>
        <mxCell id="ofAZB1A1xBXTMgq2kkwl-258" value="status (Pending, Packing, Packed, Shipping, Delivered, Cancelled, Returned, Completed)" style="text;strokeColor=#666666;fillColor=#f5f5f5;align=left;verticalAlign=middle;spacingLeft=4;spacingRight=4;overflow=hidden;points=[[0,0.5],[1,0.5]];portConstraint=eastwest;rotatable=0;whiteSpace=wrap;html=1;fontColor=#333333;swimlaneLine=0;" parent="ofAZB1A1xBXTMgq2kkwl-256" vertex="1">
          <mxGeometry y="60" width="160" height="80" as="geometry" />
        </mxCell>
        <mxCell id="ofAZB1A1xBXTMgq2kkwl-262" value="date_time" style="text;strokeColor=#666666;fillColor=#f5f5f5;align=left;verticalAlign=middle;spacingLeft=4;spacingRight=4;overflow=hidden;points=[[0,0.5],[1,0.5]];portConstraint=eastwest;rotatable=0;whiteSpace=wrap;html=1;fontColor=#333333;swimlaneLine=0;" parent="ofAZB1A1xBXTMgq2kkwl-256" vertex="1">
          <mxGeometry y="140" width="160" height="30" as="geometry" />
        </mxCell>
        <mxCell id="ofAZB1A1xBXTMgq2kkwl-260" value="orders_ID (F key)" style="text;strokeColor=#666666;fillColor=#f5f5f5;align=left;verticalAlign=middle;spacingLeft=4;spacingRight=4;overflow=hidden;points=[[0,0.5],[1,0.5]];portConstraint=eastwest;rotatable=0;whiteSpace=wrap;html=1;fontColor=#333333;fontStyle=6;swimlaneLine=0;" parent="ofAZB1A1xBXTMgq2kkwl-256" vertex="1">
          <mxGeometry y="170" width="160" height="30" as="geometry" />
        </mxCell>
      </root>
    </mxGraphModel>
  </diagram>
</mxfile>
